<svg id="Capa_1" enable-background="new 0 0 512 512" height="512" viewBox="0 0 512 512" width="512" xmlns="http://www.w3.org/2000/svg"><g><g><path d="m247.001 177.5h-184.746c-4.143 0-7.5 3.358-7.5 7.5s3.357 7.5 7.5 7.5h184.745c4.143 0 7.5-3.358 7.5-7.5s-3.357-7.5-7.499-7.5z"/><path d="m247.001 232.833h-184.746c-4.143 0-7.5 3.358-7.5 7.5s3.357 7.5 7.5 7.5h184.745c4.143 0 7.5-3.358 7.5-7.5s-3.357-7.5-7.499-7.5z"/><path d="m254.501 295.667c0-4.142-3.357-7.5-7.5-7.5h-184.746c-4.143 0-7.5 3.358-7.5 7.5s3.357 7.5 7.5 7.5h184.745c4.143 0 7.501-3.358 7.501-7.5z"/><path d="m62.255 343.5c-4.143 0-7.5 3.358-7.5 7.5s3.357 7.5 7.5 7.5h86.152c4.143 0 7.5-3.358 7.5-7.5s-3.357-7.5-7.5-7.5z"/><path d="m69.199 107.506h78.485c7.964 0 14.443-6.479 14.443-14.444v-26.604c0-7.964-6.479-14.444-14.443-14.444h-78.485c-7.964 0-14.443 6.479-14.443 14.444v26.604c-.001 7.964 6.479 14.444 14.443 14.444zm.556-40.492h77.372v25.492h-77.372z"/><path d="m204.501 497h-161.475c-14.28 0-25.898-11.618-25.898-25.898v-430.204c0-14.28 11.618-25.898 25.898-25.898h244.414c1.01 0 2.003.101 2.979.265v51.343c0 22.551 18.347 40.897 40.897 40.897h51.343c.164.977.265 1.97.265 2.98v11.258c0 4.142 3.357 7.5 7.5 7.5s7.5-3.358 7.5-7.5v-11.258c0-8.762-3.412-17-9.606-23.194l-77.684-77.684c-6.196-6.195-14.432-9.607-23.194-9.607h-244.414c-22.552 0-40.898 18.347-40.898 40.898v430.204c0 22.551 18.346 40.898 40.898 40.898h161.475c4.143 0 7.5-3.358 7.5-7.5s-3.358-7.5-7.5-7.5zm100.919-471.394 66.899 66.899h-41.002c-14.28 0-25.897-11.618-25.897-25.897z"/><path d="m509.632 421.945c-.096-22.697-13.581-43.272-34.355-52.417-17.089-7.523-48.015-12.207-64.935-14.331-.003 0-.006-.001-.01-.002-1.388-.174-2.438-1.356-2.443-2.75l-.099-23.245c1.723-1.276 3.417-2.629 5.076-4.07 12.226-10.617 20.035-25.74 22.02-42.273 9.26-1.317 16.387-9.318 16.347-18.931l-.055-12.788c-.022-5.45-2.349-10.501-6.278-14.04l-.134-31.868c-.13-30.854-25.271-55.864-56.096-55.864-.079 0-.16 0-.239 0l-50.123.211c-12.002.051-22.741 7.692-26.722 19.013-.047.132-.141.232-.219.232-15.818.067-28.567 12.92-28.5 28.741l.169 40.216c-3.9 3.572-6.184 8.643-6.16 14.092l.054 12.788c.021 5.086 2.021 9.859 5.634 13.44 2.985 2.96 6.775 4.813 10.873 5.354 2.123 16.516 10.06 31.571 22.374 42.084 1.671 1.427 3.376 2.765 5.109 4.027l.099 23.244c.006 1.393-1.034 2.584-2.418 2.771h-.001c-16.899 2.266-47.792 7.211-64.821 14.879-20.697 9.319-34.009 30.007-33.913 52.706l.241 57.082c.074 17.537 14.363 31.752 31.853 31.752h.136 225.994.031c8.537-.036 16.579-3.606 22.645-10.052 5.823-6.188 9.143-14.543 9.107-22.922zm-98.51-51.526c1.739.228 3.699.494 5.823.796 1.698.255 2.305 1.482 2.515 2.194.211.716.368 2.086-.945 3.223l-25.713 22.26c-1.089.942-2.667 1.015-3.837.18l-.113-.081c-.001-.001-.001-.001-.002-.002l-10.787-7.698zm-46.543 11.644-31.492-19.513c1.864-2.835 2.949-6.208 2.934-9.803l-.062-14.632c17.549 7.429 37.859 7.997 56.869-.24l.062 14.632c.015 3.595 1.128 6.959 3.016 9.778zm10.79 25.734-5.124 12.182-11.074.046-5.18-12.128 10.664-7.746zm-63.939-223.973c6.409-.027 12.159-4.148 14.307-10.257 1.882-5.353 6.96-8.965 12.635-8.989l50.122-.211h.176c22.581 0 41.001 18.324 41.097 40.927l.123 29.085c-2.253.528-4.788 1.356-7.305 2.65-1.87.962-3.916 1.511-6.022 1.626l-.094-22.069c-.058-14.18-11.562-25.593-25.683-25.593-.037 0-.074 0-.111 0h-.234c-3.838.017-7.64.63-11.3 1.825-9.779 3.191-21.032 3.2-30.719.129-3.671-1.163-7.487-1.71-11.316-1.729l-.217.001c-14.172.06-25.653 11.638-25.594 25.81l.084 19.858c-4.483-1.486-9.369-2.198-13.355-2.533l-.155-36.853c-.034-7.527 6.034-13.645 13.561-13.677zm-3.548 92.086c-.104-4.067-3.432-7.308-7.496-7.308-.011 0-.022 0-.033 0l-4.364.019c-.006 0-.012 0-.018 0-1.073 0-2.083-.416-2.845-1.171-.767-.76-1.191-1.772-1.195-2.852l-.054-12.789c-.005-1.145.448-2.059 1.049-2.717 6.925.184 15.073 1.613 17.208 3.701 1.833 1.794 4.246 2.742 6.703 2.742 1.259 0 2.53-.25 3.74-.761 3.563-1.508 5.855-4.984 5.839-8.856l-.122-28.951c-.024-5.901 4.756-10.722 10.658-10.747.821.058 3.254-.139 6.936 1.027 12.631 4.004 27.058 4.026 39.905-.168 3.598-1.174 6.827-1.077 6.929-1.085h.047c5.862 0 10.675 4.729 10.699 10.656l.105 24.926c.026 6.091 4.609 11.208 10.661 11.903 5.975.685 11.927-.391 17.212-3.11 2.05-1.055 4.234-1.527 5.775-1.739.547.642.952 1.503.957 2.573l.055 12.788c.01 2.228-1.796 4.048-4.024 4.058l-4.364.019c-4.079.018-7.396 3.292-7.467 7.371-.26 15.036-6.582 29.021-17.347 38.369-2.159 1.875-4.385 3.573-6.673 5.101-21.972 13.492-43.468 12.841-64.056.291-2.313-1.514-4.565-3.2-6.75-5.066-10.843-9.259-17.284-23.191-17.67-38.224zm28.598 221.09h-56.424l-.125-29.664c-.018-4.131-3.372-7.468-7.499-7.468-.011 0-.022 0-.032 0-4.143.018-7.486 3.39-7.469 7.532l.125 29.6h-12.991c-.024 0-.048 0-.072 0-9.277 0-16.846-7.528-16.885-16.815l-.241-57.082c-.07-16.781 9.771-32.075 25.071-38.965 8.653-3.897 22.057-7.097 34.559-9.485-.048 5.261 2.2 10.297 6.381 13.856l25.899 22.042c3.382 2.877 7.55 4.331 11.732 4.331.7 0 1.399-.054 2.096-.136l5.896 13.803zm3.857-97.724c-1.164.845-2.742.784-3.838-.147l-25.899-22.042c-1.323-1.125-1.177-2.498-.973-3.215.204-.714.8-1.945 2.495-2.215 2.122-.321 4.081-.603 5.819-.846l33.234 20.592zm11.302 97.724 9.075-61.981 8.106-.034 9.676 62.015zm138.202-5.331c-3.216 3.417-7.396 5.31-11.773 5.331h-12.997l-.128-30.443c-.018-4.131-3.372-7.468-7.499-7.468-.011 0-.022 0-.032 0-4.143.018-7.486 3.39-7.469 7.532l.128 30.38h-56.394l-10.702-68.596 5.83-13.862c.654.072 1.31.12 1.966.12 4.233 0 8.45-1.489 11.848-4.43l25.714-22.26c4.151-3.594 6.356-8.649 6.263-13.91 12.522 2.282 25.953 5.37 34.638 9.193 15.358 6.761 25.328 21.972 25.398 38.752l.24 57.082c.02 4.575-1.814 9.16-5.031 12.579z"/></g></g></svg>